<?xml version="1.0" encoding="UTF-8"?>
<!DOCTYPE svg PUBLIC "-//W3C//DTD SVG 1.1//EN" "http://www.w3.org/Graphics/SVG/1.1/DTD/svg11.dtd">
<!-- Creator: CorelDRAW -->
<svg xmlns="http://www.w3.org/2000/svg" xml:space="preserve" width="52.6676mm" height="53.3174mm" version="1.1" style="shape-rendering:geometricPrecision; text-rendering:geometricPrecision; image-rendering:optimizeQuality; fill-rule:evenodd; clip-rule:evenodd"
viewBox="0 0 2082.01 2107.7"
 xmlns:xlink="http://www.w3.org/1999/xlink"
 xmlns:xodm="http://www.corel.com/coreldraw/odm/2003">
 <defs>
  <style type="text/css">
   <![CDATA[
    .fil1 {fill:#635949}
    .fil0 {fill:#A7946E}
    .fil2 {fill:#C2AD82}
   ]]>
  </style>
 </defs>
 <g id="Camada_x0020_1">
  <metadata id="CorelCorpID_0Corel-Layer"/>
  <path class="fil0" d="M1643.36 1277.65c0,50.74 18.52,55.77 48.7,91.87 53.28,63.74 57.58,40.4 115.18,139.19 35.84,61.48 37.1,154.87 -1.26,219.38 -18.43,30.98 -54.7,76.14 -85.77,94.96 -7.34,4.44 -11.15,5.81 -19.01,11.12 -6.8,4.59 -11.2,7.04 -19.31,10.81 -25.35,11.78 -70.26,25.07 -98.76,25.07 -17.64,0 -23.15,-4.41 -37.37,-6.14 -18.26,-2.22 -22.97,-3.69 -38.7,-8.15 -10.62,-3 -21.31,-8.42 -32.79,-14.07 -14.4,-7.1 -17.33,-10.64 -28.39,-18.47 -41.32,-29.24 -83.65,-71.47 -119.7,-107.9 -9.43,-9.53 -12.19,-15.7 -21.62,-25.23l-140.64 -140.51c-42.7,-42.71 -240.88,-245.28 -277.43,-274.82 -13.55,-10.95 -37.03,-34.31 -59.06,-33.15 -26.27,1.39 -48.74,22.61 -46.93,45.07 4.04,50.05 46.56,80.01 75.5,108.95l182.81 185.35c94.07,90.72 289.52,304.97 367.08,352.53 48.01,29.43 69.62,33.94 118.52,45.48 59.66,14.08 150.06,-4.13 202.07,-29.18 34.41,-16.57 28.4,-16.11 55.2,-31.82 91.37,-53.56 162.93,-177.75 162.93,-282.22 0,-105.7 -17.18,-147.36 -71.63,-226.25l-128.37 -142.73c-78.56,-69.84 -101.23,10.33 -101.23,10.86z"/>
  <path class="fil0" d="M1211.6 427.52c0,20.82 15.31,40.16 36.82,40.16 55.32,0 56.43,-14.59 95.65,-44.92 59.19,-45.78 78.13,-97.71 174.53,-130.05 61.31,-20.57 110.96,-12.08 168.2,14.39 37.99,17.56 60.64,34.81 86.35,64.27 5.35,6.13 8.94,9.98 13.73,16.4 32.93,44.15 47.27,89.85 47.27,150.2 0,129.96 -99.77,191.62 -175.53,276.31 -36.27,40.55 -76.3,77.6 -114.82,116.12l-68.13 69.09c-1.1,1 -3.55,3.1 -5.33,4.71l-96.27 97.86c-29.17,27.9 -55.92,57.34 -84.64,86.06 -31.89,31.89 -113.85,95.1 -61.77,140.42 2.17,1.89 2.66,2.35 5.41,4.63 26.28,21.78 57.64,6.66 78.64,-15.67l140.05 -141.1c51.14,-51.14 105.39,-100.46 153.79,-154.13 0.85,-0.94 4.67,-5.32 4.69,-5.34 0.47,-0.5 1.16,-1.21 1.65,-1.7 41.83,-41.94 95.7,-99.06 137.56,-136.9l97.62 -103.2c20.45,-25.35 41.9,-47.86 57.4,-76.48 17.58,-32.45 26.6,-60.4 34.87,-99.01 22.29,-104.04 -29.79,-255.07 -102.61,-328.67l-47.43 -42.93c-48.05,-35.04 -123.23,-55.45 -183.83,-52.3 -19.92,1.04 -41.12,1.35 -60.28,6.31 -24.81,6.41 -48.75,9.42 -72.52,17.85l-63.11 23.91c-28.91,14.2 -58.01,31.55 -82.73,51.15 -37.35,29.62 -115.21,100.76 -115.21,152.55z"/>
  <path class="fil0" d="M150.61 1582.22c0,71.29 -0,50.4 13.85,116.68 2.07,9.91 1.7,5.84 4.51,15.58 15.57,53.95 32,84.36 68.7,132.12 16.26,21.16 42.87,49.91 67.5,66.37 20.15,13.47 32.05,23.68 55.36,35.01 51.55,25.04 135.56,39.94 194.15,28.28 54.11,-10.77 15.22,3.68 86.08,-24.37 26.81,-10.61 87.7,-52.86 111.29,-72.79 23.68,-20.01 58.38,-52.53 77.99,-75.97 0.44,-0.53 1.06,-1.3 1.51,-1.83 14.33,-17.05 35.7,-37.77 43.26,-60.77 9.37,-28.54 -18.37,-81.27 -72.19,-51.84 -27.15,14.85 -56.92,46.4 -78.85,68.42l-26.11 24.1c-58.28,48.73 -70.62,63.19 -142.87,84.72 -50.58,15.07 -143.78,-5.02 -191.46,-41.24 -70.25,-53.38 -108.98,-126.77 -108.98,-219.03 0,-52.73 22.81,-93.93 44.09,-126.61 11.67,-17.92 25.59,-29.23 38.17,-45.5 19.86,-25.68 248.96,-251.15 300.13,-302.33l169.02 -172.37c22.69,-22.69 104.82,-87.04 56.46,-138.47 -13.79,-14.67 -44.93,-16.61 -64.87,-0.47l-122.12 122.2c-45.15,45.12 -107.22,100.4 -147.17,144.01 -2.87,3.13 -1.85,2.3 -4.69,5.35l-60.12 60.37c-1.72,1.85 -4.78,4.97 -6.63,6.76l-21.59 21.92c-36.95,40.99 -133.83,126.44 -172.76,171.97l-3.06 3.64c-0.45,0.53 -1.06,1.3 -1.51,1.84l-6.1 7.28c-38.9,44.44 -67.13,72.88 -85.51,135.39 -6.09,20.72 -15.49,57.92 -15.49,81.57z"/>
  <path class="fil0" d="M150.61 494.46c0,62.77 0.5,52.53 12.91,110.92l11.64 48.6c23.48,71.54 76.95,141.74 132.25,192.41 14.78,13.55 59.29,59.74 77.48,59.74 23.47,0 26.27,3.36 46.04,-14.21 9.04,-8.03 9.35,-10.8 11.69,-25.44 13.21,-82.54 -191.61,-161.48 -191.61,-331.87 0,-30.53 14.05,-80.32 25,-102.19 12.27,-24.52 23.34,-36.31 39.38,-54.34l31.83 -31.77c45.29,-40.42 77.3,-47.45 130.53,-60.25 74.1,-17.82 137.05,9.86 193.06,56.35 45.57,37.83 193.71,191.51 235.38,233.19 58.46,58.46 108.83,113.35 168.03,170.01l148.76 149.13c29.5,18.93 85.69,22.11 85.69,-45.52 0,-22.11 -37.66,-60.29 -57.21,-76.67 -29.64,-24.84 -83,-85.8 -103.69,-103.82 -4.74,-4.12 -7.58,-5.95 -12.37,-11.06l-337.15 -338.93c-18.86,-19.03 -85.15,-84.51 -103.14,-94.33 -60.28,-32.87 -25,-18.34 -96.84,-40.38 -80.92,-24.83 -138.4,-11.04 -218.35,17.59l-113.09 60.96c-51.47,50.34 -81.51,77.35 -103.57,157.49 -4.44,16.12 -12.64,53.71 -12.64,74.38z"/>
  <path class="fil0" d="M1827.44 1073.48c0,119.26 140.13,173.26 216.78,96.29 72.31,-72.61 38.14,-220.12 -79.55,-220.12 -40.5,0 -69.25,1.36 -103.48,37.1 -12.68,13.23 -17.49,19.55 -23.4,36.85 -4.2,12.3 -10.35,34.41 -10.35,49.9z"/>
  <path class="fil0" d="M1050.95 2107.7c103.47,0 135.65,-96.2 110.99,-174.58 -9.3,-29.55 -27.86,-51.98 -56.78,-63.71 -29.03,-11.78 -44.69,-12.73 -74.29,-12.73 -40.84,0 -93.38,35.11 -105.26,78.82 -5.08,18.68 -5.76,33.42 -6.25,55.6 -1.57,71.13 56.06,116.6 131.6,116.6z"/>
  <path class="fil0" d="M-0 1073.48c0,107.13 94.42,150.85 173.62,120.07 22.1,-8.59 25.97,-9.74 39.8,-23.79 53.22,-54.07 45.94,-141.06 6.77,-182.59 -35.83,-38 -114.19,-49.43 -151.99,-26.22 -11.38,6.99 -24.89,17.37 -33.99,26.26 -21.88,21.39 -34.21,53.15 -34.21,86.28z"/>
  <path class="fil1" d="M920.41 106.21c0,49.64 -2.72,101.03 57.37,130.06 13.17,6.36 57.49,8.77 76.47,7.4 53.02,-3.83 89.09,-21.67 107.18,-67.13 10.75,-27.02 13.46,-63.16 5.64,-92.73 -10.31,-38.93 -30.19,-61.91 -72.14,-75.12 -48.95,-15.41 -93.92,-10.67 -137.64,17.26 -20.48,13.08 -36.87,46.65 -36.87,80.27z"/>
  <path class="fil2" d="M1024.89 19.67c-25.35,5.59 -52.43,-0.91 -76.17,34.92 -24.5,36.97 -23.09,98.03 -2.88,136.12 22.17,41.78 70.46,51.48 121.48,45.56 64.17,-7.45 95.93,-56.38 91.4,-130.21 -4.68,-76.16 -80.1,-98.25 -133.82,-86.39z"/>
 </g>
</svg>
